<svg id="Vrstva_1" data-name="Vrstva 1" xmlns="http://www.w3.org/2000/svg" viewBox="0 0 3814.16 1950.69"><defs><style>.cls-1{fill:#fff;}.cls-2{fill:#066;}.cls-3{fill:#699;}</style></defs><path class="cls-1" d="M1434.1,2390.35q-479.67,0-959.36.37c-13.62,0-15.64-3.75-15.64-16.26q.51-959.35-.07-1918.71c0-13.62,3.73-15.64,16.24-15.64q959.37.51,1918.72-.07c13.63,0,15.65,3.73,15.65,16.24q-.51,959.37.07,1918.71c0,13.62-3.73,15.66-16.25,15.65Q1913.79,2390.07,1434.1,2390.35ZM912.76,1698.16h-1.91c0,37.58.06,75.17,0,112.74-.28,142.24-.94,284.47-.69,426.7.07,41.88,14.91,77.75,49.82,103.57,43,31.8,88.16,28.47,134.69,9.36,46-18.89,91.89-37.89,138.18-56q230.1-89.78,460.44-179c98-38.18,194.7-79.86,294-114.28,69.59-24.13,145.32-117.52,143-198.42-3-101.09-.68-202.34-.51-303.52q.33-206.39.91-412.79c.31-107.54,1.27-215.07,1-322.62-.19-96-81.43-155.37-171.12-125.56-17.49,5.81-34.06,14.34-51.27,21C1750.35,721,1591.19,782,1432.49,844.07,1298,896.68,1163.8,949.86,1028.74,1001c-67,25.35-117.12,87.52-116.43,168.24C913.81,1345.5,912.76,1521.83,912.76,1698.16ZM684.49,1510h.69c0,161.3.36,322.61-.19,483.91-.19,57.91,23.91,102.32,70,135.71,9.41,6.82,19.52,18.3,31.74,12C799.6,2135,797,2119.8,797,2107.17c.14-207-1.07-413.9,1.62-620.86,1.73-133,.6-266,.72-398.92,0-17.42,1.34-34.48,7.22-51.18,20.52-58.34,60.71-97.17,117.53-119.6,73.06-28.85,146.25-57.36,219.3-86.2Q1470.55,701.29,1797.66,572c27.9-11,55.82-22.07,83.38-33.9,11.77-5.05,16.17-12,3.06-22.45-54.75-43.83-115.27-57.85-181.68-33.2q-118.58,44-235.78,91.67c-123.4,50.47-247.91,98.1-371.34,148.52C1006.68,758.85,917.46,794,827.5,827c-76.28,28-146.45,106.82-144,209.56C687.26,1194.27,684.49,1352.17,684.49,1510Z" transform="translate(-459.03 -440.04)"/><path class="cls-2" d="M913.1,1698.32c0-11.14,0-39,0-50.23,0-9.26,0-39.76.06-50.79q0-25.38.09-50.79t.08-50.79q0-25.38.07-50.79t0-50.79q0-25.38,0-50.79t-.11-50.79q-.08-25.38-.2-50.79t-.31-50.79q-.08-10.79-.17-21.58c-.69-80.72,49.4-142.88,116.43-168.24,135.06-51.08,269.28-104.28,403.75-156.89,158.7-62.09,317.85-123,476.76-184.64,17.22-6.67,33.79-15.2,51.27-21,89.69-29.81,170.92,29.58,171.12,125.56.22,107.54-.74,215.08-1.05,322.62q-.57,206.4-.91,412.8c-.17,101.17-2.47,202.42.51,303.51,2.37,80.9-73.36,174.28-143,198.42-99.26,34.43-196,76.1-294,114.28q-230.13,89.7-460.44,179c-46.29,18.06-92.22,37.06-138.18,55.95-46.52,19.13-91.69,22.45-134.69-9.36a126.06,126.06,0,0,1-31.8-34.23c-17.13-27.76-17.85-56.75-18-69.34C909.87,2190.91,909.7,1983.14,913.1,1698.32Z" transform="translate(-459.03 -440.04)"/><path class="cls-3" d="M683.5,1036.53c0-1.66-.06-3.32-.06-5-.11-100.31,69-177,144.06-204.59,90-33,179.18-68.17,267.8-104.37,123.43-50.42,247.94-98.05,371.34-148.52q117.06-47.88,235.78-91.67c66.41-24.64,126.93-10.63,181.68,33.19,13.1,10.49,8.7,17.41-3.06,22.46-27.56,11.83-55.48,22.87-83.38,33.9q-327.11,129.28-654.29,258.41c-73.06,28.84-146.24,57.35-219.3,86.19-56.83,22.44-97,61.27-117.53,119.6-5.87,16.71-7.2,33.78-7.22,51.19-.12,133,1,266-.72,398.92-2.69,207-1.49,413.9-1.62,620.86,0,12.63,2.62,27.82-10.26,34.47-12.21,6.3-22.33-5.18-31.74-12-24.46-17.72-42.74-38.56-54.46-62.87-14-28.93-15.78-56-15.53-72.84Z" transform="translate(-459.03 -440.04)"/><path class="cls-2" d="M2676.53,1502.53c10.23,59,56.59,98.92,150.81,98.92,70.81,0,123.94-18.86,123.94-74.62,0-42.12-24.87-66-145.26-96.86-209.59-53.73-280.15-117.17-280.15-227.22,0-158,137.3-263,356.78-263,263.68,0,354.38,123.48,360,241H3012.79c-6.27-37.94-32.11-81.64-131.05-81.64-61.52,0-98.56,28.81-98.56,69.54,0,43.3,36,57.91,143.79,84.54,224.68,55.91,283.71,132.43,283.71,243.89,0,156.27-139,266-394.57,266-232.39,0-359.8-91.47-374.08-260.51Z" transform="translate(-459.03 -440.04)"/><path class="cls-2" d="M3445.73,957.68h240.12L3618,1280.79c111.77-98.94,218.73-195.48,362.7-323.11h292.46l-403.44,338.75,254.1,448.64H3852.1l-168.6-318.31-114.25,81.82-49.47,236.49H3278.2Z" transform="translate(-459.03 -440.04)"/></svg>