<?xml version="1.0" encoding="UTF-8" standalone="no"?>
<!DOCTYPE svg PUBLIC "-//W3C//DTD SVG 1.1//EN" "http://www.w3.org/Graphics/SVG/1.1/DTD/svg11.dtd">
<svg width="100%" height="100%" viewBox="0 0 11250 1875" version="1.1" xmlns="http://www.w3.org/2000/svg" xmlns:xlink="http://www.w3.org/1999/xlink" xml:space="preserve" xmlns:serif="http://www.serif.com/" style="fill-rule:evenodd;clip-rule:evenodd;stroke-linejoin:round;stroke-miterlimit:2;">
    <g transform="matrix(1,0,0,1,-30.77124,-0)">
        <g transform="matrix(0.922895,0,0,0.922895,70.587556,-370.95941)">
            <path d="M913.1,1698.32L913.1,1648.09C913.1,1638.83 913.1,1608.33 913.16,1597.3C913.16,1580.38 913.19,1563.45 913.25,1546.51C913.31,1529.57 913.337,1512.64 913.33,1495.72C913.33,1478.8 913.353,1461.87 913.4,1444.93C913.447,1427.99 913.447,1411.06 913.4,1394.14L913.4,1343.35C913.4,1326.41 913.363,1309.48 913.29,1292.56C913.237,1275.64 913.17,1258.71 913.09,1241.77C913.01,1224.83 912.907,1207.9 912.78,1190.98C912.727,1183.787 912.67,1176.593 912.61,1169.4C911.92,1088.68 962.01,1026.52 1029.04,1001.16C1164.1,950.08 1298.32,896.88 1432.79,844.27C1591.49,782.18 1750.64,721.27 1909.55,659.63C1926.77,652.96 1943.34,644.43 1960.82,638.63C2050.51,608.82 2131.74,668.21 2131.94,764.19C2132.16,871.73 2131.2,979.27 2130.89,1086.81C2130.51,1224.41 2130.207,1362.01 2129.98,1499.61C2129.81,1600.78 2127.51,1702.03 2130.49,1803.12C2132.86,1884.02 2057.13,1977.4 1987.49,2001.54C1888.23,2035.97 1791.49,2077.64 1693.49,2115.82C1540.07,2175.62 1386.59,2235.287 1233.05,2294.82C1186.76,2312.88 1140.83,2331.88 1094.87,2350.77C1048.35,2369.9 1003.18,2373.22 960.18,2341.41C947.54,2332.081 936.754,2320.472 928.38,2307.18C911.25,2279.42 910.53,2250.43 910.38,2237.84C909.87,2190.91 909.7,1983.14 913.1,1698.32Z" style="fill:rgb(0,102,102);fill-rule:nonzero;"/>
        </g>
        <g transform="matrix(0.922895,0,0,0.922895,70.587556,-370.95941)">
            <path d="M683.5,1036.53C683.5,1034.87 683.44,1033.21 683.44,1031.53C683.33,931.22 752.44,854.53 827.5,826.94C917.5,793.94 1006.68,758.77 1095.3,722.57C1218.73,672.15 1343.24,624.52 1466.64,574.05C1544.68,542.13 1623.273,511.573 1702.42,482.38C1768.83,457.74 1829.35,471.75 1884.1,515.57C1897.2,526.06 1892.8,532.98 1881.04,538.03C1853.48,549.86 1825.56,560.9 1797.66,571.93C1579.587,658.117 1361.49,744.253 1143.37,830.34C1070.31,859.18 997.13,887.69 924.07,916.53C867.24,938.97 827.07,977.8 806.54,1036.13C800.67,1052.84 799.34,1069.91 799.32,1087.32C799.2,1220.32 800.32,1353.32 798.6,1486.24C795.91,1693.24 797.11,1900.14 796.98,2107.1C796.98,2119.73 799.6,2134.92 786.72,2141.57C774.51,2147.87 764.39,2136.39 754.98,2129.57C730.52,2111.85 712.24,2091.01 700.52,2066.7C686.52,2037.77 684.74,2010.7 684.99,1993.86L683.5,1036.53Z" style="fill:rgb(102,153,153);fill-rule:nonzero;"/>
        </g>
    </g>
    <g transform="matrix(4.724185,0,0,4.724185,-3911.721981,-4517.206257)">
        <g transform="matrix(180,0,0,180,1348.53079,1241.182693)">
            <path d="M0.313,0.012C0.263,0.012 0.218,0.003 0.177,-0.014C0.137,-0.031 0.105,-0.056 0.082,-0.089C0.058,-0.123 0.046,-0.163 0.044,-0.212L0.204,-0.212C0.205,-0.192 0.21,-0.175 0.219,-0.161C0.228,-0.146 0.241,-0.135 0.257,-0.126C0.273,-0.118 0.291,-0.114 0.313,-0.114C0.331,-0.114 0.347,-0.117 0.36,-0.122C0.374,-0.128 0.385,-0.137 0.393,-0.148C0.401,-0.159 0.405,-0.173 0.405,-0.189C0.405,-0.206 0.4,-0.221 0.391,-0.233C0.382,-0.246 0.369,-0.257 0.353,-0.266C0.337,-0.275 0.318,-0.283 0.297,-0.29C0.276,-0.298 0.254,-0.306 0.23,-0.313C0.175,-0.331 0.132,-0.356 0.102,-0.386C0.073,-0.417 0.058,-0.457 0.058,-0.509C0.058,-0.552 0.068,-0.588 0.089,-0.618C0.11,-0.649 0.139,-0.672 0.176,-0.688C0.213,-0.704 0.254,-0.712 0.301,-0.712C0.349,-0.712 0.391,-0.704 0.428,-0.687C0.464,-0.671 0.493,-0.647 0.515,-0.617C0.536,-0.586 0.548,-0.549 0.549,-0.506L0.388,-0.506C0.387,-0.521 0.383,-0.534 0.375,-0.546C0.367,-0.558 0.357,-0.568 0.344,-0.575C0.331,-0.583 0.316,-0.586 0.299,-0.586C0.284,-0.587 0.27,-0.585 0.257,-0.579C0.245,-0.574 0.235,-0.566 0.227,-0.556C0.22,-0.546 0.216,-0.534 0.216,-0.518C0.216,-0.503 0.22,-0.49 0.228,-0.479C0.235,-0.469 0.246,-0.46 0.26,-0.452C0.274,-0.444 0.29,-0.437 0.308,-0.43C0.326,-0.424 0.346,-0.417 0.368,-0.41C0.403,-0.398 0.436,-0.384 0.466,-0.368C0.495,-0.351 0.519,-0.33 0.537,-0.304C0.556,-0.277 0.565,-0.242 0.565,-0.199C0.565,-0.161 0.555,-0.126 0.535,-0.094C0.516,-0.062 0.488,-0.037 0.45,-0.017C0.413,0.002 0.368,0.012 0.313,0.012Z" style="fill:rgb(0,102,102);fill-rule:nonzero;"/>
        </g>
        <g transform="matrix(180,0,0,180,1457.79079,1241.182693)">
            <path d="M0.229,-0L0.229,-0.579L0.026,-0.579L0.026,-0.7L0.582,-0.7L0.582,-0.579L0.379,-0.579L0.379,-0L0.229,-0Z" style="fill:rgb(0,102,102);fill-rule:nonzero;"/>
        </g>
        <g transform="matrix(180,0,0,180,1567.23079,1241.182693)">
            <path d="M0.344,0.012C0.291,0.012 0.243,0.002 0.201,-0.019C0.158,-0.04 0.124,-0.072 0.099,-0.114C0.074,-0.156 0.061,-0.209 0.061,-0.273L0.061,-0.7L0.211,-0.7L0.211,-0.272C0.211,-0.24 0.216,-0.214 0.227,-0.192C0.237,-0.17 0.253,-0.154 0.273,-0.143C0.293,-0.131 0.318,-0.126 0.346,-0.126C0.376,-0.126 0.4,-0.131 0.421,-0.143C0.441,-0.154 0.456,-0.17 0.467,-0.192C0.477,-0.214 0.483,-0.24 0.483,-0.272L0.483,-0.7L0.633,-0.7L0.633,-0.273C0.633,-0.209 0.62,-0.156 0.594,-0.114C0.567,-0.072 0.532,-0.04 0.489,-0.019C0.445,0.002 0.396,0.012 0.344,0.012Z" style="fill:rgb(0,102,102);fill-rule:nonzero;"/>
        </g>
        <g transform="matrix(180,0,0,180,1691.97079,1241.182693)">
            <path d="M0.067,-0L0.067,-0.7L0.31,-0.7C0.391,-0.7 0.458,-0.685 0.511,-0.656C0.564,-0.627 0.603,-0.587 0.629,-0.534C0.655,-0.482 0.668,-0.421 0.668,-0.35C0.668,-0.28 0.655,-0.219 0.629,-0.167C0.603,-0.114 0.564,-0.073 0.511,-0.044C0.458,-0.015 0.391,-0 0.31,-0L0.067,-0ZM0.217,-0.129L0.301,-0.129C0.355,-0.129 0.398,-0.138 0.429,-0.155C0.46,-0.173 0.482,-0.198 0.495,-0.231C0.508,-0.264 0.515,-0.304 0.515,-0.35C0.515,-0.397 0.508,-0.437 0.495,-0.469C0.482,-0.502 0.46,-0.528 0.429,-0.546C0.398,-0.563 0.355,-0.572 0.301,-0.572L0.217,-0.572L0.217,-0.129Z" style="fill:rgb(0,102,102);fill-rule:nonzero;"/>
        </g>
        <g transform="matrix(180,0,0,180,1820.31079,1241.182693)">
            <rect x="0.067" y="-0.7" width="0.15" height="0.7" style="fill:rgb(0,102,102);fill-rule:nonzero;"/>
        </g>
        <g transform="matrix(180,0,0,180,1871.43079,1241.182693)">
            <path d="M0.264,0.012C0.217,0.012 0.176,0.003 0.141,-0.015C0.105,-0.032 0.078,-0.059 0.058,-0.093C0.039,-0.128 0.029,-0.17 0.029,-0.22L0.178,-0.22C0.178,-0.199 0.181,-0.181 0.188,-0.167C0.194,-0.152 0.203,-0.141 0.215,-0.133C0.227,-0.126 0.242,-0.122 0.26,-0.122C0.277,-0.122 0.291,-0.126 0.303,-0.132C0.314,-0.139 0.322,-0.149 0.328,-0.163C0.333,-0.176 0.336,-0.192 0.336,-0.211L0.336,-0.7L0.486,-0.7L0.486,-0.211C0.486,-0.139 0.466,-0.083 0.425,-0.045C0.385,-0.007 0.331,0.012 0.264,0.012Z" style="fill:rgb(0,102,102);fill-rule:nonzero;"/>
        </g>
        <g transform="matrix(180,0,0,180,1970.97079,1241.182693)">
            <path d="M0.067,-0L0.067,-0.7L0.217,-0.7L0.524,-0.24L0.524,-0.7L0.674,-0.7L0.674,-0L0.524,-0L0.217,-0.458L0.217,-0L0.067,-0Z" style="fill:rgb(0,102,102);fill-rule:nonzero;"/>
        </g>
        <g transform="matrix(180,0,0,180,2104.35079,1241.182693)">
            <path d="M0.067,-0L0.067,-0.7L0.217,-0.7L0.217,-0L0.067,-0ZM0.035,-0.743L0.022,-0.841L0.247,-0.966L0.263,-0.854L0.035,-0.743Z" style="fill:rgb(0,102,102);fill-rule:nonzero;"/>
        </g>
        <g transform="matrix(180,0,0,180,2155.47079,1241.182693)">
        </g>
        <g transform="matrix(180,0,0,180,2196.15079,1241.182693)">
            <path d="M0.067,-0L0.067,-0.7L0.217,-0.7L0.217,-0.435L0.459,-0.7L0.643,-0.7L0.386,-0.423L0.652,-0L0.468,-0L0.279,-0.307L0.217,-0.24L0.217,-0L0.067,-0Z" style="fill:rgb(0,102,102);fill-rule:nonzero;"/>
        </g>
        <g transform="matrix(180,0,0,180,2317.47079,1241.182693)">
            <path d="M0.02,-0L0.275,-0.7L0.447,-0.7L0.702,-0L0.543,-0L0.36,-0.531L0.177,-0L0.02,-0ZM0.131,-0.153L0.171,-0.269L0.538,-0.269L0.577,-0.153L0.131,-0.153Z" style="fill:rgb(0,102,102);fill-rule:nonzero;"/>
        </g>
        <g transform="matrix(180,0,0,180,2447.43079,1241.182693)">
            <path d="M0.067,-0L0.067,-0.7L0.339,-0.7C0.396,-0.7 0.443,-0.69 0.48,-0.671C0.518,-0.651 0.546,-0.625 0.564,-0.592C0.583,-0.559 0.592,-0.523 0.592,-0.483C0.592,-0.446 0.583,-0.411 0.565,-0.378C0.548,-0.345 0.52,-0.319 0.483,-0.299C0.445,-0.279 0.397,-0.269 0.338,-0.269L0.217,-0.269L0.217,-0L0.067,-0ZM0.428,-0L0.287,-0.306L0.448,-0.306L0.598,-0L0.428,-0ZM0.217,-0.377L0.33,-0.377C0.367,-0.377 0.395,-0.386 0.412,-0.404C0.43,-0.422 0.439,-0.447 0.439,-0.477C0.439,-0.507 0.43,-0.531 0.413,-0.548C0.395,-0.566 0.368,-0.575 0.33,-0.575L0.217,-0.575L0.217,-0.377Z" style="fill:rgb(0,102,102);fill-rule:nonzero;"/>
        </g>
        <g transform="matrix(180,0,0,180,2562.81079,1241.182693)">
            <path d="M0.229,-0L0.229,-0.579L0.026,-0.579L0.026,-0.7L0.582,-0.7L0.582,-0.579L0.379,-0.579L0.379,-0L0.229,-0Z" style="fill:rgb(0,102,102);fill-rule:nonzero;"/>
        </g>
        <g transform="matrix(180,0,0,180,2672.25079,1241.182693)">
            <rect x="0.067" y="-0.7" width="0.15" height="0.7" style="fill:rgb(0,102,102);fill-rule:nonzero;"/>
        </g>
        <g transform="matrix(180,0,0,180,2723.37079,1241.182693)">
            <path d="M0.384,0.012C0.314,0.012 0.254,-0.003 0.203,-0.034C0.152,-0.064 0.113,-0.106 0.086,-0.161C0.059,-0.215 0.045,-0.277 0.045,-0.348C0.045,-0.42 0.059,-0.483 0.086,-0.538C0.113,-0.592 0.152,-0.635 0.203,-0.666C0.254,-0.697 0.314,-0.712 0.384,-0.712C0.471,-0.712 0.541,-0.69 0.596,-0.647C0.652,-0.604 0.686,-0.543 0.699,-0.464L0.535,-0.464C0.527,-0.499 0.51,-0.527 0.484,-0.547C0.458,-0.566 0.425,-0.576 0.383,-0.576C0.344,-0.576 0.31,-0.567 0.283,-0.548C0.255,-0.53 0.234,-0.504 0.22,-0.47C0.205,-0.436 0.198,-0.395 0.198,-0.348C0.198,-0.302 0.205,-0.262 0.22,-0.229C0.234,-0.195 0.255,-0.169 0.283,-0.151C0.31,-0.133 0.344,-0.123 0.383,-0.123C0.425,-0.123 0.458,-0.132 0.484,-0.15C0.51,-0.167 0.527,-0.193 0.535,-0.226L0.699,-0.226C0.686,-0.152 0.652,-0.094 0.597,-0.051C0.541,-0.009 0.471,0.012 0.384,0.012ZM0.372,-0.742L0.221,-0.822L0.221,-0.927L0.372,-0.841L0.522,-0.927L0.522,-0.822L0.372,-0.742Z" style="fill:rgb(0,102,102);fill-rule:nonzero;"/>
        </g>
        <g transform="matrix(180,0,0,180,2857.29079,1241.182693)">
            <path d="M0.067,-0L0.067,-0.7L0.217,-0.7L0.217,-0.435L0.459,-0.7L0.643,-0.7L0.386,-0.423L0.652,-0L0.468,-0L0.279,-0.307L0.217,-0.24L0.217,-0L0.067,-0Z" style="fill:rgb(0,102,102);fill-rule:nonzero;"/>
        </g>
        <g transform="matrix(180,0,0,180,2978.61079,1241.182693)">
            <path d="M0.251,-0L0.251,-0.24L0.012,-0.7L0.182,-0.7L0.341,-0.364L0.313,-0.364L0.471,-0.7L0.639,-0.7L0.401,-0.24L0.401,-0L0.251,-0Z" style="fill:rgb(0,102,102);fill-rule:nonzero;"/>
        </g>
        <g transform="matrix(180,0,0,180,3095.79079,1241.182693)">
        </g>
    </g>
</svg>
