<?xml version="1.0" encoding="UTF-8" standalone="no"?><!DOCTYPE svg PUBLIC "-//W3C//DTD SVG 1.1//EN" "http://www.w3.org/Graphics/SVG/1.1/DTD/svg11.dtd"><svg width="100%" height="100%" viewBox="0 0 2835 2835" version="1.1" xmlns="http://www.w3.org/2000/svg" xmlns:xlink="http://www.w3.org/1999/xlink" xml:space="preserve" xmlns:serif="http://www.serif.com/" style="fill-rule:evenodd;clip-rule:evenodd;stroke-linejoin:round;stroke-miterlimit:2;"><g><path d="M1388.76,2862.271c-473.937,0 -947.874,-0.157 -1421.811,0.55c-20.194,0.031 -23.183,-5.552 -23.183,-24.095c0.503,-947.874 0.519,-1895.748 -0.11,-2843.606c-0.016,-20.194 5.536,-23.183 24.079,-23.183c947.874,0.503 1895.748,0.519 2843.622,-0.11c20.194,-0.016 23.183,5.536 23.183,24.079c-0.503,947.874 -0.519,1895.748 0.11,2843.606c0.016,20.179 -5.536,23.198 -24.079,23.183c-473.937,-0.55 -947.874,-0.425 -1421.811,-0.425Zm-772.652,-1025.852l-2.831,0c0,55.692 0.094,111.399 -0.016,167.091c-0.409,210.798 -1.384,421.595 -1.022,632.377c0.11,62.077 22.097,115.236 73.841,153.502c63.728,47.12 130.65,42.197 199.615,13.872c68.116,-27.995 136.186,-56.163 204.79,-82.932c227.343,-88.704 455.001,-176.606 682.391,-265.231c145.182,-56.588 288.555,-118.351 435.656,-169.371c103.142,-35.765 215.374,-174.168 211.851,-294.06c-4.404,-149.822 -1.007,-299.879 -0.755,-449.827c0.33,-203.925 0.771,-407.849 1.353,-611.774c0.456,-159.384 1.887,-318.752 1.557,-478.136c-0.283,-142.257 -120.678,-230.269 -253.608,-186.09c-25.919,8.619 -50.47,21.248 -75.98,31.141c-235.506,91.252 -471.373,181.623 -706.58,273.645c-199.285,77.962 -398.208,156.789 -598.374,232.518c-99.336,37.573 -173.57,129.706 -172.548,249.33c2.218,261.283 0.661,522.614 0.661,783.945Zm-338.302,-278.836l1.022,0c0,239.06 0.535,478.121 -0.283,717.181c-0.283,85.826 35.434,151.646 103.724,201.125c13.95,10.113 28.939,27.114 47.041,17.788c19.093,-9.861 15.193,-32.368 15.209,-51.083c0.204,-306.721 -1.588,-613.426 2.406,-920.146c2.564,-197.036 0.881,-394.151 1.054,-591.218c0.016,-25.809 1.997,-51.099 10.711,-75.854c30.402,-86.455 89.978,-144.002 174.184,-177.251c108.269,-42.748 216.743,-85.008 325.012,-127.74c323.266,-127.583 646.485,-255.244 969.688,-382.984c41.348,-16.341 82.727,-32.698 123.572,-50.234c17.442,-7.486 23.953,-17.741 4.53,-33.28c-81.139,-64.955 -170.834,-85.731 -269.257,-49.196c-117.155,43.471 -233.776,88.547 -349.437,135.855c-182.881,74.801 -367.414,145.386 -550.342,220.108c-131.342,53.663 -263.564,105.768 -396.887,154.681c-113.05,41.49 -217.042,158.315 -213.408,310.574c5.568,233.729 1.463,467.74 1.463,701.673Z" style="fill:#fff;fill-rule:nonzero;"/><path d="M616.611,1836.656c0.016,-16.514 0.031,-57.799 0.063,-74.439c0.016,-13.73 0.063,-58.932 0.094,-75.273c0.031,-25.086 0.079,-50.187 0.126,-75.273c0.047,-25.086 0.079,-50.187 0.126,-75.273c0.031,-25.086 0.079,-50.187 0.094,-75.273c0.031,-25.086 0.047,-50.187 0.047,-75.273c0,-25.086 -0.016,-50.187 -0.047,-75.273c-0.031,-25.086 -0.079,-50.187 -0.157,-75.273c-0.079,-25.086 -0.173,-50.187 -0.299,-75.273c-0.126,-25.086 -0.283,-50.187 -0.456,-75.273c-0.079,-10.663 -0.157,-21.327 -0.252,-31.99c-1.022,-119.625 73.212,-211.757 172.548,-249.33c200.166,-75.713 399.089,-154.556 598.374,-232.518c235.207,-92.022 471.075,-182.378 706.58,-273.645c25.526,-9.893 50.077,-22.538 75.98,-31.141c132.93,-44.179 253.31,43.833 253.608,186.09c0.33,159.368 -1.101,318.752 -1.557,478.136c-0.566,203.925 -1.022,407.849 -1.353,611.774c-0.252,149.947 -3.649,300.005 0.755,449.827c3.523,119.892 -108.71,258.279 -211.851,294.06c-147.101,51.02 -290.474,112.783 -435.656,169.371c-227.375,88.625 -455.032,176.527 -682.391,265.231c-68.604,26.768 -136.673,54.937 -204.79,82.932c-68.95,28.341 -135.887,33.264 -199.615,-13.872c-9.578,-7.093 -30.732,-24.142 -47.136,-50.737c-25.384,-41.144 -26.454,-84.111 -26.706,-102.764c-0.912,-69.485 -1.164,-377.416 3.869,-799.531Z" style="fill:#066;fill-rule:nonzero;"/><path d="M276.343,855.864c-0.063,-2.469 -0.094,-4.923 -0.094,-7.361c-0.157,-148.658 102.277,-262.384 213.503,-303.213c133.308,-48.913 265.546,-101.019 396.887,-154.681c182.928,-74.722 367.461,-145.308 550.342,-220.108c115.661,-47.309 232.282,-92.384 349.437,-135.855c98.424,-36.52 188.118,-15.759 269.257,49.196c19.408,15.539 12.897,25.793 -4.53,33.28c-40.845,17.536 -82.224,33.893 -123.572,50.234c-323.203,127.74 -646.422,255.417 -969.688,382.984c-108.285,42.732 -216.743,84.992 -325.012,127.74c-84.222,33.248 -143.782,90.796 -174.184,177.251c-8.697,24.755 -10.679,50.061 -10.711,75.854c-0.173,197.067 1.526,394.166 -1.054,591.218c-3.995,306.721 -2.218,613.426 -2.406,920.146c-0.016,18.716 3.885,41.222 -15.209,51.083c-18.087,9.342 -33.091,-7.675 -47.041,-17.788c-36.252,-26.265 -63.335,-57.139 -80.714,-93.171c-20.682,-42.874 -23.387,-83.073 -23.01,-107.955l-2.202,-1418.854Z" style="fill:#699;fill-rule:nonzero;"/></g></svg>