<?xml version="1.0" encoding="UTF-8" standalone="no"?>
<!DOCTYPE svg PUBLIC "-//W3C//DTD SVG 1.1//EN" "http://www.w3.org/Graphics/SVG/1.1/DTD/svg11.dtd">
<svg width="100%" height="100%" viewBox="0 0 11250 1875" version="1.1" xmlns="http://www.w3.org/2000/svg" xmlns:xlink="http://www.w3.org/1999/xlink" xml:space="preserve" xmlns:serif="http://www.serif.com/" style="fill-rule:evenodd;clip-rule:evenodd;stroke-linejoin:round;stroke-miterlimit:2;">
    <g transform="matrix(1,0,0,1,-30.77124,-0)">
        <g transform="matrix(0.922895,0,0,0.922895,70.587556,-370.95941)">
            <path d="M913.1,1698.32L913.1,1648.09C913.1,1638.83 913.1,1608.33 913.16,1597.3C913.16,1580.38 913.19,1563.45 913.25,1546.51C913.31,1529.57 913.337,1512.64 913.33,1495.72C913.33,1478.8 913.353,1461.87 913.4,1444.93C913.447,1427.99 913.447,1411.06 913.4,1394.14L913.4,1343.35C913.4,1326.41 913.363,1309.48 913.29,1292.56C913.237,1275.64 913.17,1258.71 913.09,1241.77C913.01,1224.83 912.907,1207.9 912.78,1190.98C912.727,1183.787 912.67,1176.593 912.61,1169.4C911.92,1088.68 962.01,1026.52 1029.04,1001.16C1164.1,950.08 1298.32,896.88 1432.79,844.27C1591.49,782.18 1750.64,721.27 1909.55,659.63C1926.77,652.96 1943.34,644.43 1960.82,638.63C2050.51,608.82 2131.74,668.21 2131.94,764.19C2132.16,871.73 2131.2,979.27 2130.89,1086.81C2130.51,1224.41 2130.207,1362.01 2129.98,1499.61C2129.81,1600.78 2127.51,1702.03 2130.49,1803.12C2132.86,1884.02 2057.13,1977.4 1987.49,2001.54C1888.23,2035.97 1791.49,2077.64 1693.49,2115.82C1540.07,2175.62 1386.59,2235.287 1233.05,2294.82C1186.76,2312.88 1140.83,2331.88 1094.87,2350.77C1048.35,2369.9 1003.18,2373.22 960.18,2341.41C947.54,2332.081 936.754,2320.472 928.38,2307.18C911.25,2279.42 910.53,2250.43 910.38,2237.84C909.87,2190.91 909.7,1983.14 913.1,1698.32Z" style="fill:rgb(0,102,102);fill-rule:nonzero;"/>
        </g>
        <g transform="matrix(0.922895,0,0,0.922895,70.587556,-370.95941)">
            <path d="M683.5,1036.53C683.5,1034.87 683.44,1033.21 683.44,1031.53C683.33,931.22 752.44,854.53 827.5,826.94C917.5,793.94 1006.68,758.77 1095.3,722.57C1218.73,672.15 1343.24,624.52 1466.64,574.05C1544.68,542.13 1623.273,511.573 1702.42,482.38C1768.83,457.74 1829.35,471.75 1884.1,515.57C1897.2,526.06 1892.8,532.98 1881.04,538.03C1853.48,549.86 1825.56,560.9 1797.66,571.93C1579.587,658.117 1361.49,744.253 1143.37,830.34C1070.31,859.18 997.13,887.69 924.07,916.53C867.24,938.97 827.07,977.8 806.54,1036.13C800.67,1052.84 799.34,1069.91 799.32,1087.32C799.2,1220.32 800.32,1353.32 798.6,1486.24C795.91,1693.24 797.11,1900.14 796.98,2107.1C796.98,2119.73 799.6,2134.92 786.72,2141.57C774.51,2147.87 764.39,2136.39 754.98,2129.57C730.52,2111.85 712.24,2091.01 700.52,2066.7C686.52,2037.77 684.74,2010.7 684.99,1993.86L683.5,1036.53Z" style="fill:rgb(102,153,153);fill-rule:nonzero;"/>
        </g>
    </g>
    <g transform="matrix(4.724185,0,0,4.724185,-3911.721981,-4517.206257)">
        <g transform="matrix(180,0,0,180,1348.53079,1241.182693)">
            <path d="M0.271,0.012C0.22,0.012 0.176,0.003 0.138,-0.014C0.1,-0.031 0.072,-0.056 0.054,-0.09C0.036,-0.123 0.03,-0.164 0.037,-0.212L0.197,-0.212C0.195,-0.192 0.197,-0.174 0.204,-0.159C0.211,-0.145 0.222,-0.133 0.237,-0.125C0.252,-0.118 0.27,-0.114 0.29,-0.114C0.311,-0.114 0.329,-0.117 0.344,-0.124C0.36,-0.132 0.372,-0.142 0.381,-0.154C0.39,-0.167 0.394,-0.182 0.395,-0.2C0.396,-0.212 0.393,-0.223 0.388,-0.232C0.383,-0.242 0.376,-0.251 0.366,-0.258C0.356,-0.266 0.345,-0.273 0.332,-0.279C0.319,-0.285 0.305,-0.291 0.289,-0.297C0.274,-0.302 0.258,-0.308 0.242,-0.313C0.194,-0.33 0.158,-0.352 0.134,-0.381C0.109,-0.41 0.098,-0.445 0.1,-0.488C0.102,-0.533 0.116,-0.573 0.14,-0.607C0.165,-0.64 0.198,-0.666 0.24,-0.684C0.281,-0.703 0.328,-0.712 0.38,-0.712C0.427,-0.712 0.468,-0.704 0.501,-0.688C0.535,-0.673 0.56,-0.649 0.577,-0.619C0.594,-0.588 0.599,-0.55 0.594,-0.506L0.433,-0.506C0.435,-0.523 0.434,-0.537 0.427,-0.549C0.421,-0.561 0.412,-0.57 0.399,-0.577C0.386,-0.583 0.371,-0.586 0.354,-0.586C0.337,-0.586 0.321,-0.583 0.307,-0.577C0.293,-0.571 0.283,-0.562 0.275,-0.551C0.267,-0.54 0.263,-0.526 0.262,-0.511C0.261,-0.5 0.263,-0.49 0.267,-0.482C0.272,-0.473 0.278,-0.466 0.286,-0.459C0.294,-0.453 0.304,-0.447 0.315,-0.441C0.326,-0.436 0.339,-0.431 0.352,-0.426C0.366,-0.421 0.38,-0.415 0.395,-0.41C0.418,-0.402 0.44,-0.392 0.46,-0.381C0.48,-0.37 0.498,-0.357 0.513,-0.341C0.528,-0.326 0.54,-0.308 0.548,-0.288C0.556,-0.267 0.56,-0.244 0.558,-0.217C0.556,-0.172 0.543,-0.132 0.518,-0.098C0.494,-0.063 0.46,-0.037 0.417,-0.017C0.374,0.002 0.325,0.012 0.271,0.012Z" style="fill:rgb(0,102,102);fill-rule:nonzero;"/>
        </g>
        <g transform="matrix(180,0,0,180,1454.55079,1241.182693)">
            <path d="M0.185,-0L0.288,-0.581L0.084,-0.581L0.106,-0.7L0.662,-0.7L0.641,-0.581L0.437,-0.581L0.335,-0L0.185,-0Z" style="fill:rgb(0,102,102);fill-rule:nonzero;"/>
        </g>
        <g transform="matrix(180,0,0,180,1564.17079,1241.182693)">
            <path d="M0.298,0.012C0.242,0.012 0.194,0.001 0.155,-0.022C0.117,-0.044 0.09,-0.077 0.074,-0.119C0.058,-0.162 0.056,-0.213 0.066,-0.273L0.141,-0.7L0.291,-0.7L0.215,-0.273C0.21,-0.242 0.21,-0.216 0.216,-0.194C0.222,-0.172 0.234,-0.155 0.252,-0.144C0.27,-0.132 0.294,-0.127 0.325,-0.127C0.354,-0.127 0.38,-0.132 0.402,-0.143C0.424,-0.154 0.442,-0.171 0.457,-0.193C0.471,-0.214 0.481,-0.241 0.487,-0.273L0.562,-0.7L0.712,-0.7L0.637,-0.273C0.626,-0.209 0.603,-0.155 0.57,-0.113C0.537,-0.071 0.496,-0.04 0.449,-0.019C0.402,0.002 0.352,0.012 0.298,0.012Z" style="fill:rgb(0,102,102);fill-rule:nonzero;"/>
        </g>
        <g transform="matrix(180,0,0,180,1689.09079,1241.182693)">
            <path d="M0.023,-0L0.146,-0.7L0.389,-0.7C0.462,-0.7 0.521,-0.687 0.567,-0.662C0.613,-0.637 0.646,-0.602 0.666,-0.557C0.686,-0.512 0.695,-0.459 0.692,-0.398C0.69,-0.339 0.678,-0.285 0.657,-0.237C0.636,-0.188 0.607,-0.146 0.571,-0.111C0.534,-0.075 0.489,-0.048 0.438,-0.029C0.387,-0.01 0.33,-0 0.266,-0L0.023,-0ZM0.196,-0.129L0.28,-0.129C0.335,-0.129 0.382,-0.14 0.419,-0.161C0.456,-0.182 0.485,-0.212 0.505,-0.25C0.525,-0.289 0.536,-0.335 0.538,-0.388C0.54,-0.429 0.535,-0.463 0.523,-0.49C0.512,-0.518 0.492,-0.538 0.465,-0.552C0.438,-0.565 0.402,-0.572 0.358,-0.572L0.274,-0.572L0.196,-0.129Z" style="fill:rgb(0,102,102);fill-rule:nonzero;"/>
        </g>
        <g transform="matrix(180,0,0,180,1817.97079,1241.182693)">
            <path d="M0.023,-0L0.146,-0.7L0.296,-0.7L0.173,-0L0.023,-0Z" style="fill:rgb(0,102,102);fill-rule:nonzero;"/>
        </g>
        <g transform="matrix(180,0,0,180,1869.09079,1241.182693)">
            <path d="M0.215,0.012C0.169,0.012 0.13,0.003 0.098,-0.015C0.067,-0.032 0.044,-0.059 0.03,-0.093C0.017,-0.128 0.014,-0.17 0.023,-0.22L0.173,-0.22C0.169,-0.199 0.169,-0.181 0.172,-0.167C0.176,-0.152 0.182,-0.141 0.193,-0.133C0.204,-0.126 0.218,-0.122 0.235,-0.122C0.252,-0.122 0.267,-0.126 0.279,-0.132C0.291,-0.139 0.301,-0.149 0.309,-0.162C0.317,-0.175 0.323,-0.191 0.326,-0.208L0.412,-0.7L0.562,-0.7L0.476,-0.208C0.463,-0.137 0.433,-0.083 0.386,-0.045C0.339,-0.007 0.282,0.012 0.215,0.012Z" style="fill:rgb(0,102,102);fill-rule:nonzero;"/>
        </g>
        <g transform="matrix(180,0,0,180,1968.09079,1241.182693)">
            <path d="M0.023,-0L0.146,-0.7L0.297,-0.7L0.521,-0.236L0.603,-0.7L0.753,-0.7L0.63,-0L0.48,-0L0.255,-0.464L0.173,-0L0.023,-0Z" style="fill:rgb(0,102,102);fill-rule:nonzero;"/>
        </g>
        <g transform="matrix(180,0,0,180,2101.47079,1241.182693)">
            <path d="M0.023,-0L0.146,-0.7L0.296,-0.7L0.173,-0L0.023,-0ZM0.131,-0.753L0.129,-0.851L0.363,-0.976L0.368,-0.864L0.131,-0.753Z" style="fill:rgb(0,102,102);fill-rule:nonzero;"/>
        </g>
        <g transform="matrix(180,0,0,180,2152.59079,1241.182693)">
        </g>
        <g transform="matrix(180,0,0,180,2195.97079,1241.182693)">
            <path d="M0.023,-0L0.146,-0.7L0.296,-0.7L0.25,-0.435L0.538,-0.7L0.723,-0.7L0.417,-0.423L0.608,-0L0.428,-0L0.292,-0.31L0.216,-0.24L0.173,-0L0.023,-0Z" style="fill:rgb(0,102,102);fill-rule:nonzero;"/>
        </g>
        <g transform="matrix(180,0,0,180,2317.29079,1241.182693)">
            <path d="M-0.024,-0L0.354,-0.7L0.527,-0.7L0.657,-0L0.499,-0L0.411,-0.533L0.133,-0L-0.024,-0ZM0.108,-0.153L0.167,-0.268L0.543,-0.268L0.561,-0.153L0.108,-0.153Z" style="fill:rgb(0,102,102);fill-rule:nonzero;"/>
        </g>
        <g transform="matrix(180,0,0,180,2447.25079,1241.182693)">
            <path d="M0.023,-0L0.146,-0.7L0.415,-0.7C0.467,-0.7 0.509,-0.691 0.543,-0.673C0.576,-0.655 0.6,-0.632 0.616,-0.602C0.631,-0.572 0.638,-0.54 0.636,-0.505C0.634,-0.458 0.621,-0.417 0.596,-0.382C0.572,-0.346 0.538,-0.319 0.494,-0.299C0.451,-0.279 0.4,-0.269 0.342,-0.269L0.221,-0.269L0.173,-0L0.023,-0ZM0.389,-0L0.302,-0.306L0.459,-0.306L0.554,-0L0.389,-0ZM0.24,-0.377L0.353,-0.377C0.392,-0.377 0.422,-0.387 0.445,-0.408C0.468,-0.428 0.48,-0.456 0.481,-0.491C0.483,-0.516 0.476,-0.537 0.461,-0.552C0.446,-0.567 0.422,-0.575 0.388,-0.575L0.275,-0.575L0.24,-0.377Z" style="fill:rgb(0,102,102);fill-rule:nonzero;"/>
        </g>
        <g transform="matrix(180,0,0,180,2562.27079,1241.182693)">
            <path d="M0.185,-0L0.288,-0.581L0.084,-0.581L0.106,-0.7L0.662,-0.7L0.641,-0.581L0.437,-0.581L0.335,-0L0.185,-0Z" style="fill:rgb(0,102,102);fill-rule:nonzero;"/>
        </g>
        <g transform="matrix(180,0,0,180,2671.89079,1241.182693)">
            <path d="M0.023,-0L0.146,-0.7L0.296,-0.7L0.173,-0L0.023,-0Z" style="fill:rgb(0,102,102);fill-rule:nonzero;"/>
        </g>
        <g transform="matrix(180,0,0,180,2723.01079,1241.182693)">
            <path d="M0.34,0.012C0.276,0.012 0.223,-0.001 0.18,-0.026C0.137,-0.051 0.105,-0.086 0.084,-0.132C0.063,-0.177 0.055,-0.229 0.058,-0.289C0.06,-0.349 0.072,-0.406 0.093,-0.457C0.115,-0.508 0.144,-0.553 0.18,-0.591C0.216,-0.629 0.259,-0.659 0.308,-0.68C0.357,-0.701 0.409,-0.712 0.466,-0.712C0.552,-0.712 0.619,-0.69 0.667,-0.647C0.714,-0.604 0.738,-0.543 0.737,-0.464L0.573,-0.464C0.572,-0.5 0.56,-0.527 0.537,-0.547C0.515,-0.566 0.483,-0.576 0.441,-0.576C0.409,-0.576 0.379,-0.569 0.352,-0.555C0.325,-0.542 0.301,-0.523 0.28,-0.499C0.26,-0.474 0.244,-0.445 0.232,-0.412C0.22,-0.379 0.214,-0.342 0.212,-0.302C0.21,-0.265 0.215,-0.233 0.226,-0.206C0.237,-0.18 0.254,-0.159 0.278,-0.145C0.301,-0.131 0.33,-0.123 0.364,-0.123C0.406,-0.123 0.44,-0.132 0.468,-0.15C0.496,-0.167 0.517,-0.193 0.531,-0.226L0.696,-0.226C0.678,-0.176 0.652,-0.133 0.618,-0.097C0.583,-0.062 0.543,-0.035 0.495,-0.016C0.448,0.003 0.396,0.012 0.34,0.012ZM0.658,-0.948L0.639,-0.843L0.473,-0.76L0.338,-0.843L0.356,-0.948L0.491,-0.862L0.658,-0.948Z" style="fill:rgb(0,102,102);fill-rule:nonzero;"/>
        </g>
        <g transform="matrix(180,0,0,180,2857.11079,1241.182693)">
            <path d="M0.023,-0L0.146,-0.7L0.296,-0.7L0.25,-0.435L0.538,-0.7L0.723,-0.7L0.417,-0.423L0.608,-0L0.428,-0L0.292,-0.31L0.216,-0.24L0.173,-0L0.023,-0Z" style="fill:rgb(0,102,102);fill-rule:nonzero;"/>
        </g>
        <g transform="matrix(180,0,0,180,2978.43079,1241.182693)">
            <path d="M0.207,-0L0.25,-0.24L0.091,-0.7L0.262,-0.7L0.359,-0.37L0.338,-0.373L0.55,-0.7L0.719,-0.7L0.4,-0.24L0.357,-0L0.207,-0Z" style="fill:rgb(0,102,102);fill-rule:nonzero;"/>
        </g>
        <g transform="matrix(180,0,0,180,3095.79079,1241.182693)">
        </g>
    </g>
</svg>
