<?xml version="1.0" encoding="UTF-8" standalone="no"?>
<!DOCTYPE svg PUBLIC "-//W3C//DTD SVG 1.1//EN" "http://www.w3.org/Graphics/SVG/1.1/DTD/svg11.dtd">
<svg width="100%" height="100%" viewBox="0 0 1933 1485" version="1.1" xmlns="http://www.w3.org/2000/svg" xmlns:xlink="http://www.w3.org/1999/xlink" xml:space="preserve" xmlns:serif="http://www.serif.com/" style="fill-rule:evenodd;clip-rule:evenodd;stroke-linecap:round;stroke-linejoin:round;stroke-miterlimit:1.5;">
    <g id="Artboard1" transform="matrix(1,0,0,1,-1009.794076,-1615.197891)">
        <rect x="1009.794" y="1615.198" width="1932.071" height="1484.452" style="fill:rgb(234,235,239);"/>
        <clipPath id="_clip1">
            <rect x="1009.794" y="1615.198" width="1932.071" height="1484.452"/>
        </clipPath>
        <g clip-path="url(#_clip1)">
            <g transform="matrix(1,0,0,1,1009.794076,1615.197891)">
                <rect x="-289.897" y="-286.435" width="2575.556" height="1989.352" style="fill:rgb(234,235,239);"/>
            </g>
            <g transform="matrix(1,0,0,1,1009.794076,1615.197891)">
                <path d="M413.19,629.823L1480.909,629.823L1480.909,293.783C1480.909,293.783 1479.632,272.071 1445.148,258.022L457.891,259.299C457.891,259.299 417.022,264.408 415.744,301.446L413.19,629.823Z" style="fill:rgb(28,45,63);"/>
            </g>
            <g transform="matrix(-1,-0.000205,0.000205,-1,2903.802398,2858.236275)">
                <path d="M413.19,629.823L1480.909,629.823L1480.909,293.783C1480.909,293.783 1479.632,272.071 1445.148,258.022L457.891,259.299C457.891,259.299 417.022,264.408 415.744,301.446L413.19,629.823Z" style="fill:rgb(28,45,63);"/>
            </g>
            <g transform="matrix(1,0,0,1,1009.794076,1615.197891)">
                <path d="M464.323,311.076L462.689,629.823L1430.482,629.823L1432.116,311.076C1432.116,311.076 1431.938,302.545 1424.119,301.556L470.38,302.008C470.38,302.008 464.838,304.753 464.323,311.076Z" style="fill:rgb(204,232,204);"/>
            </g>
            <g transform="matrix(-1,-0.000205,0.000205,-1,2902.925069,2858.226493)">
                <path d="M464.323,311.076L462.689,629.823L1430.482,629.823L1432.116,311.076C1432.116,311.076 1431.938,302.545 1424.119,301.556L470.38,302.008C470.38,302.008 464.838,304.753 464.323,311.076Z" style="fill:rgb(204,232,204);"/>
            </g>
            <g transform="matrix(1.017494,0,0,1.017494,1002.72572,1596.506496)">
                <path d="M355.469,1030.619C355.469,1030.619 369.129,986.96 347.166,948.123L334.577,913.839C334.577,913.839 328.952,900.983 330.024,874.734C330.024,874.734 328.815,825.895 355.626,708.241C355.626,708.241 362.819,658.595 370.012,643.555C370.012,643.555 380.568,632.438 389.676,629.823C389.676,629.823 440.635,642.247 432.788,678.866C432.788,678.866 438.019,685.405 422.979,789.378C422.979,789.378 531.529,881.737 497.525,984.244L653.811,986.049C653.811,986.049 498.179,984.401 497.525,984.244C496.871,984.087 653.811,986.049 653.811,986.049C653.811,986.049 665.027,1042.286 577.679,1093.291L564.224,1124.025L355.469,1030.619Z" style="fill:rgb(251,197,151);"/>
            </g>
            <g transform="matrix(1.012247,0,0,1.334596,982.11192,1367.50851)">
                <path d="M921.454,650.097L921.454,639.585L951.576,639.585L951.576,629.823L1002.99,644.841L951.576,659.859L951.576,650.097L921.454,650.097Z" style="fill:white;stroke:rgb(66,110,159);stroke-width:3.52px;"/>
            </g>
            <g transform="matrix(0.927634,0.417995,-0.408854,0.907347,1492.094135,1534.013735)">
                <rect x="317.025" y="1070.245" width="257.999" height="56.498" style="fill:rgb(254,254,254);"/>
            </g>
            <g transform="matrix(1,0,0,1,1009.794076,1615.197891)">
                <path d="M206.991,1268.038L298.196,1064.582L575.024,1189.515L536.402,1274.695L209.649,1274.695L204.328,1274.658L206.991,1268.038Z" style="fill:rgb(0,102,102);"/>
            </g>
            <g transform="matrix(1.147581,0,0,1.147581,814.197791,1497.307742)">
                <path d="M945.825,548.467L945.825,716.039C945.825,761.725 908.734,798.817 863.048,798.817L697.493,798.817C651.807,798.817 614.715,761.725 614.715,716.039L614.715,548.467C614.715,502.781 651.807,465.689 697.493,465.689L863.048,465.689C908.734,465.689 945.825,502.781 945.825,548.467Z" style="fill:white;stroke:rgb(66,110,159);stroke-width:1.82px;"/>
            </g>
            <g transform="matrix(1.147581,0,0,1.147581,1307.348559,1497.307742)">
                <path d="M945.825,548.467L945.825,716.039C945.825,761.725 908.734,798.817 863.048,798.817L697.493,798.817C651.807,798.817 614.715,761.725 614.715,716.039L614.715,548.467C614.715,502.781 651.807,465.689 697.493,465.689L863.048,465.689C908.734,465.689 945.825,502.781 945.825,548.467Z" style="fill:white;stroke:rgb(66,110,159);stroke-width:1.82px;"/>
            </g>
            <g transform="matrix(1,0,0,1,1009.794076,1615.197891)">
                <path d="M1358.166,1187.042L1346.71,1162.757L1338.066,1148.699C1338.066,1148.699 1301.202,1154.58 1240.253,1083.704C1240.253,1083.704 1118.831,975.211 1111.689,959.973C1111.689,959.973 1105.295,939.468 1123.02,926.361C1123.02,926.361 1148.109,909.76 1166.458,924.364C1166.458,924.364 1231.492,973.42 1236.734,974.793C1236.734,974.793 1249.503,979.414 1241.015,961.19C1241.015,961.19 1128.307,703.46 1123.843,682.628C1123.843,682.628 1119.278,659.537 1136.909,642.998C1136.909,642.998 1168.895,624.119 1188.555,664.999L1256.136,808.842C1256.136,808.842 1266.343,782.049 1288.589,775.65C1288.589,775.65 1306.874,764.984 1333.996,796.373C1333.996,796.373 1348.929,761.022 1369.651,763.765C1369.651,763.765 1382.85,758.889 1409.972,785.706C1409.972,785.706 1423.99,754.013 1446.542,755.232C1469.093,756.451 1480.673,773.517 1483.72,777.478L1553.192,934.921C1553.192,934.921 1564.352,962.967 1559.702,1022.415C1559.702,1022.415 1547.105,1060.716 1560.27,1075.587L1568.072,1087.046L1358.166,1187.042Z" style="fill:rgb(251,197,151);"/>
            </g>
            <g transform="matrix(-0.925653,0.436305,0.424156,0.888159,2432.610018,1605.394695)">
                <rect x="317.025" y="1070.245" width="257.999" height="56.498" style="fill:rgb(254,254,254);"/>
            </g>
            <g transform="matrix(1,0,0,1,1009.794076,1615.197891)">
                <path d="M1692.614,1274.695L1620.237,1121.639L1350.618,1247.997L1362.503,1274.695L1692.614,1274.695Z" style="fill:rgb(0,102,102);"/>
            </g>
            <g transform="matrix(1.666393,0,0,1.666393,455.544074,1172.666687)">
                <text x="712.189px" y="612.911px" style="font-family:'ArialMT', 'Arial', sans-serif;font-size:50px;fill:rgb(66,110,159);">sun</text>
                <g transform="matrix(50,0,0,50,805.292169,670.406491)">
                </g>
                <text x="699.701px" y="670.406px" style="font-family:'ArialMT', 'Arial', sans-serif;font-size:50px;fill:rgb(66,110,159);">[sʌn]</text>
            </g>
            <g transform="matrix(1.666393,0,0,1.666393,949.26441,1230.851078)">
                <g transform="matrix(50,0,0,50,824.762384,612.911374)">
                </g>
                <text x="680.231px" y="612.911px" style="font-family:'ArialMT', 'Arial', sans-serif;font-size:50px;fill:rgb(66,110,159);">slunce</text>
            </g>
            <g transform="matrix(1,0,0,1,1006.794076,1615.197891)">
                <circle cx="440.272" cy="623.999" r="13.668" style="fill:rgb(28,45,63);stroke:white;stroke-width:2.08px;"/>
            </g>
        </g>
    </g>
</svg>
